<svg id="Calque_2" data-name="Calque 2" xmlns="http://www.w3.org/2000/svg" viewBox="0 0 555.65 259.19"><defs><style>.cls-1{fill:#1d1d1b;}.cls-1,.cls-2,.cls-3,.cls-4,.cls-5{stroke:#1d1d1b;stroke-miterlimit:10;stroke-width:0.5px;}.cls-2{fill:#009fe3;}.cls-3{fill:none;}.cls-4{fill:#dadada;}.cls-5{fill:#312783;}</style></defs><title>logo_footer</title><rect class="cls-1" x="378.72" y="361.72" width="3.34" height="22.11" rx="1.08" transform="translate(-159.76 149.91) rotate(-41.19)"/><rect class="cls-1" x="398.36" y="344.54" width="3.34" height="22.11" rx="1.08" transform="translate(-143.58 158.58) rotate(-41.19)"/><rect class="cls-1" x="417.68" y="327.63" width="3.34" height="22.11" rx="1.08" transform="translate(-127.67 167.13) rotate(-41.19)"/><rect class="cls-1" x="437.01" y="310.72" width="3.34" height="22.11" rx="1.08" transform="translate(-111.75 175.67) rotate(-41.19)"/><path class="cls-2" d="M500.71,217.58h70.41a0,0,0,0,1,0,0v8.1a4.11,4.11,0,0,1-4.11,4.11H504.82a4.11,4.11,0,0,1-4.11-4.11v-8.1A0,0,0,0,1,500.71,217.58Z" transform="translate(342.95 -519.75) rotate(48.81)"/><rect class="cls-2" x="420.91" y="266.6" width="124.38" height="10.97" rx="1.85" transform="matrix(0.66, 0.75, -0.75, 0.66, 361.34, -463.48)"/><path class="cls-3" d="M341.29,386.82" transform="translate(-8.4 -192.82)"/><polygon class="cls-4" points="340.79 193.03 300.43 228.34 270.79 257.99 271.54 258.84 343.37 195.98 340.79 193.03"/><path class="cls-3" d="M367.17,400.14" transform="translate(-8.4 -192.82)"/><path class="cls-2" d="M513.1,335.05" transform="translate(-8.4 -192.82)"/><path class="cls-2" d="M500.42,283.54" transform="translate(-8.4 -192.82)"/><path class="cls-2" d="M517,211.44" transform="translate(-8.4 -192.82)"/><line class="cls-2" x1="527.52" y1="30.87" x2="474.7" y2="79.26"/><path class="cls-2" d="M546.56,228.94l-14.43-16.5a10.72,10.72,0,0,0-15.12-1h0a49.59,49.59,0,0,1-44.59,39.44l-.54,0L338.63,367.52a10.7,10.7,0,0,0-1,15.11l14.43,16.5a10.71,10.71,0,0,0,15.11,1l133.25-116.6h0l.14-.54a52.13,52.13,0,0,1,45-38.95h0A10.71,10.71,0,0,0,546.56,228.94ZM376.73,379.12a8.77,8.77,0,0,1-12.38-.83l-4.22-4.82a8.77,8.77,0,0,1,.83-12.38L466.21,269,482,287Z" transform="translate(-8.4 -192.82)"/><path class="cls-5" d="M367.3,400.19l-20.43,13c-6.67,4.24-6.17-5.15-11.38-11.09l-.79-.91c-4.7-5.38-14.54-5.1-10.68-11.11l14.58-22.66" transform="translate(-8.4 -192.82)"/><path class="cls-2" d="M65.18,341.62q28-46.69,28-64.28,0-7.68-4.64-10.31a8.26,8.26,0,0,0-4.08-.94,14.77,14.77,0,0,0-4.89.87,15.28,15.28,0,0,0,4.69-3l3.2-3a15.88,15.88,0,0,1,2.56-2,13.35,13.35,0,0,1,7.38-1.95,8.2,8.2,0,0,1,6.6,2.66,10.81,10.81,0,0,1,2.26,7.21,40.66,40.66,0,0,1-1.55,10.34,107.53,107.53,0,0,1-4,12.06Q98.2,295.6,95,302.07T88.43,314.6q-3.44,6.27-9,15.5T71.79,343a37.6,37.6,0,0,1-4,5.73,18.25,18.25,0,0,1-3.7,3.27c-1.26.81-2.57,1.62-3.91,2.43-3.6,2.15-5.66,3.59-6.2,4.31q-2.22-9-4.25-18t-4.31-18a288.15,288.15,0,0,0-11-35.24c-.5-1.21-1.06-2.59-1.69-4.14s-1.33-3.12-2.12-4.72A51.59,51.59,0,0,0,28,274a22.51,22.51,0,0,0-3.2-4q-3.84-4-8.29-4a10,10,0,0,0-4.68,1.21,14.57,14.57,0,0,1-3.4,1.42,7.17,7.17,0,0,0,.94-.81c.59-.54,1-.93,1.31-1.18l1.42-1.15c.65-.51,1.75-1.32,3.3-2.42S18.58,261,20.24,260q5.86-3.36,9-3.37a12.42,12.42,0,0,1,4.52.61,13.16,13.16,0,0,1,3.33,2.32,25.22,25.22,0,0,1,4.28,5.66,77.71,77.71,0,0,1,4.58,9.1q2.22,5.16,4.28,11.19t3.94,12.36q1.89,6.33,3.57,12.67t3.07,12.09c.92,3.85,1.75,7.39,2.49,10.65S64.64,339.33,65.18,341.62Z" transform="translate(-8.4 -192.82)"/><path class="cls-2" d="M116.6,345.67c.31-.05,2.11-.07,5.39-.07q8.42,0,12.43-1.28a28,28,0,0,0,5.76-2.36l-4.58,3.5a66.32,66.32,0,0,1-7.25,5.06,27.52,27.52,0,0,1-5.42,2.39,35.59,35.59,0,0,1-5.52,1.25,84.47,84.47,0,0,1-11.39.6h-2.63a.57.57,0,0,0,.1-.13c0-.05.34-.41.94-1.08l2.67-2.93q1.74-1.92,4.65-5.76a89,89,0,0,0,6.3-9.91q3.39-6.06,6.33-12.36T130,309.82q2.69-6.46,5.56-13t5.82-13.14q3-6.65,4.48-10.41c1-2.52,1.6-4.09,1.76-4.72a4.06,4.06,0,0,1,.77-1.62h-5.12q-12.54,0-19.47,2.83,9.3-8.09,15.56-10.17,5.73-1.81,18.6-1.82h3.57q2.9,9.63,5.83,19.54t5.9,19.81q6.47,21.57,9.73,31.27c2.18,6.46,3.46,10.32,3.84,11.55a15.65,15.65,0,0,0,1.45,3.34,6.78,6.78,0,0,0,6.27,3.23,12.88,12.88,0,0,0,4.95-1.08,28.56,28.56,0,0,0,4-1.95q-2.43,1.82-4.31,3.3c-3.24,2.47-5.3,4-6.2,4.55s-1.8,1.11-2.7,1.65a28,28,0,0,1-2.83,1.48q-9.43,4.18-12.73-3.16a132.45,132.45,0,0,1-5.66-16.61q-3.3-11.43-5.86-19.44-5.67,4-24.67,3.77h-4.17q-7.62,15.22-14.83,23.25c-.4.45-.81.92-1.21,1.41C117.18,345.06,116.6,345.71,116.6,345.67Zm23-36L153,310q4.19,0,8.49-.27-3.09-9.82-9.23-30.12-6.68,15.3-13.54,30.33A7,7,0,0,1,139.64,309.68Z" transform="translate(-8.4 -192.82)"/><path class="cls-2" d="M288.49,266.9q-11.79,13.61-28.44,31.46,32.15,45.22,35.72,47.17a8.92,8.92,0,0,0,4.38,1.62q3,0,9.43-3.24-12.27,12.27-21.09,12.27a11.14,11.14,0,0,1-8.62-4.25,128.94,128.94,0,0,1-8.36-10.54l-7.41-10.14Q259,324.37,248.8,310l-35.91,35.58h24.39a23.48,23.48,0,0,0-5,3.71q-3.54,3.09-5.22,4.28a5.44,5.44,0,0,1-2.9,1.18h-24.8l47.78-47q-7-9.63-10-13.64l-4.72-6.34q-1.71-2.32-3.33-4.48l-3-3.94q-1.35-1.78-2.89-4.11a34.62,34.62,0,0,0-3.44-4.35q-4.51-4.92-8.83-4.92-3.17,0-8.42,2.63,10-9.09,18.46-11.45a13.81,13.81,0,0,1,3.81-.54,7.06,7.06,0,0,1,3.57.94,13.46,13.46,0,0,1,3,2.39,23.77,23.77,0,0,1,2.53,3.17c.76,1.15,1.57,2.26,2.43,3.34s1.83,2.37,2.93,3.87,2.25,3.07,3.47,4.68,2.42,3.26,3.64,4.92,2.78,3.79,4.71,6.37,4.29,5.76,7.08,9.54q13.47-16.65,24.73-28.84H266.32c.81-.23,2.38-1.36,4.72-3.41s4.11-3.51,5.32-4.41a5.6,5.6,0,0,1,3.1-1.35h30.73q-1.21.34-4.72,3.4t-5.32,4.42a5.62,5.62,0,0,1-3.1,1.35Z" transform="translate(-8.4 -192.82)"/></svg>