<svg id="Calque_2" data-name="Calque 2" xmlns="http://www.w3.org/2000/svg" viewBox="0 0 314.57 286.22"><defs><style>.cls-1{fill:#1d1d1b;}.cls-1,.cls-2,.cls-3,.cls-4,.cls-5{stroke:#1d1d1b;stroke-miterlimit:10;stroke-width:0.5px;}.cls-2{fill:#009fe3;}.cls-3{fill:none;}.cls-4{fill:#dadada;}.cls-5{fill:#312783;}</style></defs><title>logo</title><rect class="cls-1" x="251.04" y="419.3" width="3.68" height="24.39" rx="1.19" transform="translate(-362.47 40.28) rotate(-41.19)"/><rect class="cls-1" x="272.71" y="400.34" width="3.68" height="24.39" rx="1.19" transform="translate(-344.62 49.86) rotate(-41.19)"/><rect class="cls-1" x="294.03" y="381.69" width="3.68" height="24.39" rx="1.19" transform="translate(-327.06 59.28) rotate(-41.19)"/><rect class="cls-1" x="315.34" y="363.04" width="3.68" height="24.39" rx="1.19" transform="translate(-309.51 68.71) rotate(-41.19)"/><path class="cls-2" d="M385.62,260.29H463.3a0,0,0,0,1,0,0v5.9a7.57,7.57,0,0,1-7.57,7.57H393.19a7.57,7.57,0,0,1-7.57-7.57v-5.9A0,0,0,0,1,385.62,260.29Z" transform="translate(205.01 -461.26) rotate(48.81)"/><rect class="cls-2" x="297.59" y="314.36" width="137.22" height="12.11" rx="3.4" transform="translate(225.29 -399.18) rotate(48.81)"/><path class="cls-3" d="M209.74,447" transform="translate(-140.89 -233.01)"/><polygon class="cls-4" points="77.57 212.91 33.04 251.88 0.34 284.58 1.17 285.52 80.42 216.17 77.57 212.91"/><path class="cls-3" d="M238.3,461.68" transform="translate(-140.89 -233.01)"/><path class="cls-2" d="M399.29,389.87" transform="translate(-140.89 -233.01)"/><path class="cls-2" d="M385.3,333.05" transform="translate(-140.89 -233.01)"/><path class="cls-2" d="M403.6,253.51" transform="translate(-140.89 -233.01)"/><line class="cls-2" x1="283.57" y1="34.02" x2="225.31" y2="87.41"/><path class="cls-2" d="M436.2,272.81l-15.92-18.19a11.82,11.82,0,0,0-16.68-1.11h0A54.72,54.72,0,0,1,354.41,297l-.59.05-147,128.63a11.8,11.8,0,0,0-1.11,16.67l15.92,18.2a11.81,11.81,0,0,0,16.67,1.11l147-128.63h0l.15-.59a57.5,57.5,0,0,1,49.64-43h0A11.82,11.82,0,0,0,436.2,272.81ZM248.85,438.5a9.68,9.68,0,0,1-13.66-.92l-4.66-5.31a9.68,9.68,0,0,1,.91-13.66L347.56,317,365,336.89Z" transform="translate(-140.89 -233.01)"/><path class="cls-5" d="M238.44,461.74,215.91,476c-7.37,4.67-6.82-5.68-12.56-12.24l-.87-1c-5.19-5.93-16-5.62-11.79-12.25l16.08-25" transform="translate(-140.89 -233.01)"/><path class="cls-2" d="M322.21,510.47q13.41-22.34,13.41-30.74,0-3.68-2.22-4.93a4,4,0,0,0-1.95-.45,7,7,0,0,0-2.34.42,7.23,7.23,0,0,0,2.24-1.44l1.53-1.43a8.32,8.32,0,0,1,1.23-.94,6.37,6.37,0,0,1,3.52-.93,3.9,3.9,0,0,1,3.16,1.27,5.16,5.16,0,0,1,1.08,3.45,19.17,19.17,0,0,1-.74,4.95,52.08,52.08,0,0,1-1.93,5.77c-.8,2-1.7,4-2.73,6.09s-2.06,4.06-3.14,6-2.52,4.47-4.28,7.41-3,5-3.68,6.17a17.33,17.33,0,0,1-1.9,2.74,8.69,8.69,0,0,1-1.77,1.57l-1.87,1.16a14.17,14.17,0,0,0-3,2.06q-1.06-4.29-2-8.59t-2.06-8.59a136.15,136.15,0,0,0-5.25-16.85l-.81-2c-.3-.74-.64-1.5-1-2.26s-.8-1.51-1.26-2.24a11,11,0,0,0-1.53-1.93,5.43,5.43,0,0,0-4-1.9,4.73,4.73,0,0,0-2.24.58,6.91,6.91,0,0,1-1.63.67,3.93,3.93,0,0,0,.45-.38l.63-.57.68-.55c.31-.24.83-.63,1.58-1.16a27.13,27.13,0,0,1,2.3-1.46,9.73,9.73,0,0,1,4.29-1.61,5.81,5.81,0,0,1,2.16.29,6.09,6.09,0,0,1,1.59,1.11,12.27,12.27,0,0,1,2.05,2.71A36.61,36.61,0,0,1,313,478.3q1.06,2.46,2,5.35t1.89,5.91q.9,3,1.71,6.06t1.46,5.78q.66,2.76,1.2,5.09C321.65,508.05,322,509.38,322.21,510.47Z" transform="translate(-140.89 -233.01)"/><path class="cls-2" d="M346.8,512.41q.22,0,2.58,0a21,21,0,0,0,5.95-.62,12.62,12.62,0,0,0,2.75-1.13l-2.19,1.68a32.1,32.1,0,0,1-3.46,2.42,13.63,13.63,0,0,1-2.6,1.14,16.83,16.83,0,0,1-2.64.6,40.48,40.48,0,0,1-5.45.29h-1.25l.05-.07.45-.51,1.27-1.4c.56-.62,1.3-1.53,2.22-2.76a41.48,41.48,0,0,0,3-4.74q1.62-2.89,3-5.91c.93-2,1.83-4,2.69-6.11s1.74-4.13,2.66-6.2,1.84-4.17,2.78-6.28,1.66-3.78,2.15-5,.76-2,.83-2.26a2,2,0,0,1,.37-.77h-2.44a25.55,25.55,0,0,0-9.32,1.35q4.46-3.87,7.45-4.87a32.29,32.29,0,0,1,8.89-.87h1.71l2.79,9.35q1.4,4.74,2.82,9.47,3.09,10.32,4.65,15c1,3.09,1.66,4.93,1.84,5.52a7.08,7.08,0,0,0,.69,1.6,3.25,3.25,0,0,0,3,1.55,6.28,6.28,0,0,0,2.37-.52,13.93,13.93,0,0,0,1.92-.93c-.78.58-1.46,1.1-2.07,1.58-1.54,1.18-2.53,1.9-3,2.17l-1.29.79a12.35,12.35,0,0,1-1.35.71c-3,1.33-5,.83-6.09-1.52a61.78,61.78,0,0,1-2.71-7.94q-1.57-5.46-2.81-9.3-2.7,1.94-11.79,1.81h-2a51.24,51.24,0,0,1-7.09,11.12c-.19.21-.39.44-.58.67C347.08,512.12,346.8,512.43,346.8,512.41Zm11-17.21,6.38.13c1.33,0,2.68-.05,4.06-.13q-1.49-4.71-4.42-14.41-3.19,7.32-6.48,14.5Z" transform="translate(-140.89 -233.01)"/><path class="cls-2" d="M429,474.73q-5.64,6.51-13.6,15,15.38,21.63,17.08,22.56a4.27,4.27,0,0,0,2.1.78,12,12,0,0,0,4.51-1.55q-5.87,5.87-10.09,5.86a5.32,5.32,0,0,1-4.12-2,61.14,61.14,0,0,1-4-5l-3.54-4.85q-2.42-3.28-7.32-10.18l-17.17,17h11.66a11.6,11.6,0,0,0-2.4,1.78c-1.13,1-2,1.67-2.5,2a2.53,2.53,0,0,1-1.38.57H386.38l22.85-22.5c-2.24-3.07-3.83-5.25-4.79-6.52s-1.71-2.29-2.25-3l-1.6-2.15-1.42-1.88c-.43-.57-.89-1.23-1.38-2a17.52,17.52,0,0,0-1.65-2.08c-1.44-1.56-2.84-2.35-4.22-2.35a9.75,9.75,0,0,0-4,1.26q4.8-4.35,8.83-5.48a6.67,6.67,0,0,1,1.82-.26,3.39,3.39,0,0,1,1.71.45,6.33,6.33,0,0,1,1.45,1.15,11.27,11.27,0,0,1,1.21,1.51c.37.55.75,1.08,1.16,1.6s.88,1.13,1.4,1.85,1.08,1.47,1.66,2.24,1.16,1.56,1.74,2.35,1.33,1.81,2.26,3.05,2.05,2.75,3.38,4.56q6.45-8,11.83-13.8h-7.93a8.4,8.4,0,0,0,2.26-1.62c1.11-1,2-1.68,2.54-2.11a2.7,2.7,0,0,1,1.49-.65h14.69a8.54,8.54,0,0,0-2.26,1.63c-1.11,1-2,1.68-2.54,2.11a2.68,2.68,0,0,1-1.48.64Z" transform="translate(-140.89 -233.01)"/></svg>