<svg xmlns="http://www.w3.org/2000/svg" viewBox="0 0 468.236 454.77"><defs><style>.cls-1{fill:#1d1d1b;}.cls-1,.cls-2,.cls-3,.cls-4{stroke:#1d1d1b;stroke-miterlimit:10;stroke-width:0.75px;}.cls-2,.cls-4{fill:#dadada;}.cls-3{fill:#575756;}.cls-4{font-size:92.286px;font-family:Fondamento-Regular, Fondamento;}.cls-5{letter-spacing:-0.047em;}</style></defs><title>vax logo blanc</title><g id="Calque_2" data-name="Calque 2"><path class="cls-1" d="M229.255,310.822H231.2a1.766,1.766,0,0,1,1.766,1.766V345.36a1.766,1.766,0,0,1-1.766,1.766h-1.946a1.766,1.766,0,0,1-1.766-1.766V312.589a1.767,1.767,0,0,1,1.767-1.767Z" transform="translate(-223.196 199.483) rotate(-41.186)"/><rect class="cls-1" x="259.735" y="282.606" width="5.479" height="36.304" rx="1.766" ry="1.766" transform="translate(-196.637 213.737) rotate(-41.186)"/><path class="cls-1" d="M293.235,254.839h1.946a1.766,1.766,0,0,1,1.766,1.766v32.771a1.767,1.767,0,0,1-1.767,1.767h-1.946a1.766,1.766,0,0,1-1.766-1.766V256.605A1.766,1.766,0,0,1,293.235,254.839Z" transform="translate(-170.5 227.763) rotate(-41.186)"/><rect class="cls-1" x="323.198" y="227.075" width="5.479" height="36.304" rx="1.766" ry="1.766" transform="translate(-144.366 241.788) rotate(-41.186)"/><path class="cls-2" d="M427.81,74.136H543.435a0,0,0,0,1,0,0v8.779A11.265,11.265,0,0,1,532.17,94.18h-93.1A11.265,11.265,0,0,1,427.81,82.915V74.136A0,0,0,0,1,427.81,74.136Z" transform="translate(165.642 -370.248) rotate(48.814)"/><rect class="cls-2" x="296.772" y="154.618" width="204.25" height="18.019" rx="5.063" ry="5.063" transform="translate(195.833 -277.843) rotate(48.814)"/><path class="cls-2" d="M166.018,352.039" transform="translate(-63.528 -33.521)"/><polygon class="cls-2" points="115.464 316.925 49.189 374.916 0.513 423.592 1.742 424.997 119.708 321.775 115.464 316.925"/><path class="cls-2" d="M208.526,373.906" transform="translate(-63.528 -33.521)"/><path class="cls-2" d="M448.157,267.02" transform="translate(-63.528 -33.521)"/><path class="cls-2" d="M427.334,182.445" transform="translate(-63.528 -33.521)"/><path class="cls-2" d="M454.573,64.041" transform="translate(-63.528 -33.521)"/><line class="cls-2" x1="422.094" y1="50.637" x2="335.369" y2="130.106"/><path class="cls-2" d="M503.094,92.78,479.4,65.7a17.593,17.593,0,0,0-24.823-1.655h0a81.448,81.448,0,0,1-73.22,64.772l-.885.072L161.66,320.345a17.59,17.59,0,0,0-1.655,24.822l23.7,27.084a17.591,17.591,0,0,0,24.822,1.655L427.334,182.445h0l.225-.883A85.58,85.58,0,0,1,501.44,117.6h0A17.591,17.591,0,0,0,503.094,92.78ZM224.22,339.393a14.409,14.409,0,0,1-20.333-1.355l-6.926-7.915a14.41,14.41,0,0,1,1.355-20.334L371.153,158.555l25.9,29.6Z" transform="translate(-63.528 -33.521)"/><path class="cls-3" d="M208.734,373.994,175.191,395.28c-10.959,6.955-10.142-8.453-18.689-18.221l-1.3-1.488c-7.725-8.828-23.885-8.372-17.538-18.238L161.6,320.125" transform="translate(-63.528 -33.521)"/></g><g id="Calque_1" data-name="Calque 1"><text class="cls-4" transform="translate(264.487 419.516)"><tspan class="cls-5">V</tspan><tspan x="61.914" y="0">AX</tspan></text></g></svg>